<svg xmlns="http://www.w3.org/2000/svg" xmlns:xlink="http://www.w3.org/1999/xlink" width="1920" zoomAndPan="magnify" viewBox="0 0 1440 809.999993" height="1080" preserveAspectRatio="xMidYMid meet" version="1.0"><defs><g/><clipPath id="069d33d809"><path d="M 398.222656 141.289062 L 927.722656 141.289062 L 927.722656 308.539062 L 398.222656 308.539062 Z M 398.222656 141.289062 " clip-rule="nonzero"/></clipPath><clipPath id="87adf47f5b"><path d="M 631 279 L 661 279 L 661 308.539062 L 631 308.539062 Z M 631 279 " clip-rule="nonzero"/></clipPath><clipPath id="d0d463a16e"><path d="M 666 279 L 695 279 L 695 308.539062 L 666 308.539062 Z M 666 279 " clip-rule="nonzero"/></clipPath><clipPath id="665e527bb2"><rect x="0" width="1363" y="0" height="275"/></clipPath><clipPath id="669caca377"><rect x="0" width="671" y="0" height="158"/></clipPath><clipPath id="34c03bf01c"><path d="M 0.519531 1.296875 L 157.128906 1.296875 L 157.128906 117.710938 L 0.519531 117.710938 Z M 0.519531 1.296875 " clip-rule="nonzero"/></clipPath><clipPath id="b299c3eaa1"><path d="M 50.175781 55.035156 L 206.679688 55.035156 L 206.679688 171.445312 L 50.175781 171.445312 Z M 50.175781 55.035156 " clip-rule="nonzero"/></clipPath><clipPath id="98dac59561"><path d="M 89.839844 76.65625 L 104 76.65625 L 104 91 L 89.839844 91 Z M 89.839844 76.65625 " clip-rule="nonzero"/></clipPath><clipPath id="1725370f12"><path d="M 107 76.65625 L 121.535156 76.65625 L 121.535156 91 L 107 91 Z M 107 76.65625 " clip-rule="nonzero"/></clipPath><clipPath id="b440ccdef9"><path d="M 89.839844 94 L 104 94 L 104 108.351562 L 89.839844 108.351562 Z M 89.839844 94 " clip-rule="nonzero"/></clipPath><clipPath id="06119ba046"><path d="M 107 94 L 121.535156 94 L 121.535156 108.351562 L 107 108.351562 Z M 107 94 " clip-rule="nonzero"/></clipPath><clipPath id="4c183197de"><rect x="0" width="207" y="0" height="173"/></clipPath></defs><g clip-path="url(#069d33d809)"><path fill="#38b6ff" d="M 451.097656 308.074219 L 656.636719 178.71875 L 662.746094 174.871094 L 668.855469 178.71875 L 731.609375 218.210938 L 768.253906 241.277344 L 874.390625 308.074219 L 927.960938 308.074219 L 768.601562 207.78125 L 768.601562 163.859375 L 731.957031 163.859375 L 731.957031 184.714844 L 669.203125 145.222656 L 663.09375 141.375 L 656.984375 145.222656 L 398.222656 308.074219 Z M 451.097656 308.074219 " fill-opacity="1" fill-rule="evenodd"/></g><path fill="#38b6ff" d="M 631.808594 245.507812 L 660.097656 245.507812 L 660.097656 273.800781 L 631.808594 273.800781 Z M 631.808594 245.507812 " fill-opacity="1" fill-rule="evenodd"/><path fill="#38b6ff" d="M 666.085938 245.507812 L 694.375 245.507812 L 694.375 273.800781 L 666.085938 273.800781 Z M 666.085938 245.507812 " fill-opacity="1" fill-rule="evenodd"/><g clip-path="url(#87adf47f5b)"><path fill="#38b6ff" d="M 631.808594 279.785156 L 660.097656 279.785156 L 660.097656 308.074219 L 631.808594 308.074219 Z M 631.808594 279.785156 " fill-opacity="1" fill-rule="evenodd"/></g><g clip-path="url(#d0d463a16e)"><path fill="#38b6ff" d="M 666.085938 279.785156 L 694.375 279.785156 L 694.375 308.074219 L 666.085938 308.074219 Z M 666.085938 279.785156 " fill-opacity="1" fill-rule="evenodd"/></g><g transform="matrix(1, 0, 0, 1, 39, 280)"><g clip-path="url(#665e527bb2)"><g fill="#545454" fill-opacity="1"><g transform="translate(1.766006, 213.600923)"><g><path d="M 46.015625 -29.921875 L 46.015625 -65.511719 L 106.085938 -65.511719 L 106.085938 -94.976562 L 46.015625 -94.976562 L 46.015625 -128.753906 L 111.753906 -128.753906 L 111.753906 -158.675781 L 14.734375 -158.675781 L 14.734375 0 L 112.886719 0 L 112.886719 -29.921875 Z M 46.015625 -29.921875 "/></g></g></g><g fill="#545454" fill-opacity="1"><g transform="translate(121.896293, 213.600923)"><g><path d="M 89.992188 3.171875 C 119.234375 3.171875 144.847656 -11.5625 158.222656 -34.226562 L 131.246094 -49.867188 C 123.765625 -36.042969 108.125 -27.429688 89.992188 -27.429688 C 58.9375 -27.429688 38.535156 -48.960938 38.535156 -79.335938 C 38.535156 -109.9375 58.9375 -131.472656 89.992188 -131.472656 C 108.125 -131.472656 123.539062 -122.859375 131.246094 -108.804688 L 158.222656 -124.445312 C 144.621094 -147.113281 119.007812 -161.847656 89.992188 -161.847656 C 41.933594 -161.847656 7.480469 -125.804688 7.480469 -79.335938 C 7.480469 -33.09375 41.933594 3.171875 89.992188 3.171875 Z M 89.992188 3.171875 "/></g></g></g><g fill="#545454" fill-opacity="1"><g transform="translate(286.47384, 213.600923)"><g/></g></g><g fill="#545454" fill-opacity="1"><g transform="translate(343.139075, 213.600923)"><g/></g></g><g fill="#545454" fill-opacity="1"><g transform="translate(399.80431, 213.600923)"><g/></g></g><g fill="#545454" fill-opacity="1"><g transform="translate(456.488229, 213.600923)"><g><path d="M 68.910156 3.171875 C 102.683594 3.171875 126.484375 -14.960938 126.484375 -44.65625 C 126.484375 -77.070312 99.738281 -85.457031 74.578125 -93.390625 C 50.550781 -100.644531 44.429688 -105.859375 44.429688 -115.605469 C 44.429688 -124.671875 52.136719 -131.472656 65.285156 -131.472656 C 81.378906 -131.472656 89.992188 -123.085938 95.65625 -111.070312 L 121.953125 -126.257812 C 111.296875 -148.472656 91.351562 -161.847656 65.285156 -161.847656 C 38.082031 -161.847656 13.148438 -144.621094 13.148438 -114.699219 C 13.148438 -84.550781 36.722656 -74.351562 60.976562 -67.324219 C 84.550781 -60.523438 95.203125 -55.988281 95.203125 -44.203125 C 95.203125 -35.363281 88.632812 -27.429688 69.816406 -27.429688 C 50.097656 -27.429688 38.988281 -36.949219 33.320312 -51.683594 L 6.574219 -36.042969 C 15.1875 -12.46875 36.496094 3.171875 68.910156 3.171875 Z M 68.910156 3.171875 "/></g></g></g><g fill="#545454" fill-opacity="1"><g transform="translate(588.631562, 213.600923)"><g><path d="M 14.734375 -158.675781 L 14.734375 0 L 46.015625 0 L 46.015625 -158.675781 Z M 14.734375 -158.675781 "/></g></g></g><g fill="#545454" fill-opacity="1"><g transform="translate(649.376686, 213.600923)"><g><path d="M 68.910156 3.171875 C 102.683594 3.171875 126.484375 -14.960938 126.484375 -44.65625 C 126.484375 -77.070312 99.738281 -85.457031 74.578125 -93.390625 C 50.550781 -100.644531 44.429688 -105.859375 44.429688 -115.605469 C 44.429688 -124.671875 52.136719 -131.472656 65.285156 -131.472656 C 81.378906 -131.472656 89.992188 -123.085938 95.65625 -111.070312 L 121.953125 -126.257812 C 111.296875 -148.472656 91.351562 -161.847656 65.285156 -161.847656 C 38.082031 -161.847656 13.148438 -144.621094 13.148438 -114.699219 C 13.148438 -84.550781 36.722656 -74.351562 60.976562 -67.324219 C 84.550781 -60.523438 95.203125 -55.988281 95.203125 -44.203125 C 95.203125 -35.363281 88.632812 -27.429688 69.816406 -27.429688 C 50.097656 -27.429688 38.988281 -36.949219 33.320312 -51.683594 L 6.574219 -36.042969 C 15.1875 -12.46875 36.496094 3.171875 68.910156 3.171875 Z M 68.910156 3.171875 "/></g></g></g><g fill="#545454" fill-opacity="1"><g transform="translate(781.520019, 213.600923)"><g><path d="M 119.6875 -158.675781 L 2.945312 -158.675781 L 2.945312 -128.753906 L 45.5625 -128.753906 L 45.5625 0 L 76.84375 0 L 76.84375 -128.753906 L 119.6875 -128.753906 Z M 119.6875 -158.675781 "/></g></g></g><g fill="#545454" fill-opacity="1"><g transform="translate(903.916911, 213.600923)"><g><path d="M 46.015625 -29.921875 L 46.015625 -65.511719 L 106.085938 -65.511719 L 106.085938 -94.976562 L 46.015625 -94.976562 L 46.015625 -128.753906 L 111.753906 -128.753906 L 111.753906 -158.675781 L 14.734375 -158.675781 L 14.734375 0 L 112.886719 0 L 112.886719 -29.921875 Z M 46.015625 -29.921875 "/></g></g></g><g fill="#545454" fill-opacity="1"><g transform="translate(1024.047222, 213.600923)"><g><path d="M 170.007812 -158.675781 L 137.820312 -158.675781 L 92.484375 -83.644531 L 46.921875 -158.675781 L 14.734375 -158.675781 L 14.734375 0 L 46.015625 0 L 46.015625 -102.683594 L 90.671875 -29.242188 L 94.296875 -29.242188 L 138.953125 -102.910156 L 138.953125 0 L 170.007812 0 Z M 170.007812 -158.675781 "/></g></g></g><g fill="#545454" fill-opacity="1"><g transform="translate(1208.775875, 213.600923)"><g><path d="M 116.738281 0 L 150.742188 0 L 94.976562 -158.675781 L 56.214844 -158.675781 L 0.679688 0 L 34.453125 0 L 43.976562 -28.5625 L 107.21875 -28.5625 Z M 53.949219 -57.804688 L 75.710938 -122.632812 L 97.472656 -57.804688 Z M 53.949219 -57.804688 "/></g></g></g></g></g><g transform="matrix(1, 0, 0, 1, 385, 502)"><g clip-path="url(#669caca377)"><g fill="#545454" fill-opacity="1"><g transform="translate(0.748995, 122.489636)"><g><path d="M 44.597656 -91.011719 L 8.449219 -91.011719 L 8.449219 0 L 44.597656 0 C 69.6875 0 88.410156 -19.894531 88.410156 -45.507812 C 88.410156 -71.121094 69.6875 -91.011719 44.597656 -91.011719 Z M 44.597656 -17.164062 L 26.394531 -17.164062 L 26.394531 -73.851562 L 44.597656 -73.851562 C 60.328125 -73.851562 71.25 -62.277344 71.25 -45.507812 C 71.25 -28.734375 60.328125 -17.164062 44.597656 -17.164062 Z M 44.597656 -17.164062 "/></g></g></g><g fill="#545454" fill-opacity="1"><g transform="translate(93.444474, 122.489636)"><g><path d="M 26.394531 -17.164062 L 26.394531 -37.574219 L 60.847656 -37.574219 L 60.847656 -54.476562 L 26.394531 -54.476562 L 26.394531 -73.851562 L 64.097656 -73.851562 L 64.097656 -91.011719 L 8.449219 -91.011719 L 8.449219 0 L 64.75 0 L 64.75 -17.164062 Z M 26.394531 -17.164062 "/></g></g></g><g fill="#545454" fill-opacity="1"><g transform="translate(162.348539, 122.489636)"><g><path d="M 26.394531 -17.164062 L 26.394531 -91.011719 L 8.449219 -91.011719 L 8.449219 0 L 61.109375 0 L 61.109375 -17.164062 Z M 26.394531 -17.164062 "/></g></g></g><g fill="#545454" fill-opacity="1"><g transform="translate(225.142246, 122.489636)"><g/></g></g><g fill="#545454" fill-opacity="1"><g transform="translate(257.64418, 122.489636)"><g><path d="M 51.617188 1.820312 C 68.390625 1.820312 83.082031 -6.632812 90.753906 -19.632812 L 75.28125 -28.605469 C 70.988281 -20.671875 62.019531 -15.730469 51.617188 -15.730469 C 33.804688 -15.730469 22.101562 -28.082031 22.101562 -45.507812 C 22.101562 -63.058594 33.804688 -75.410156 51.617188 -75.410156 C 62.019531 -75.410156 70.859375 -70.46875 75.28125 -62.410156 L 90.753906 -71.378906 C 82.949219 -84.382812 68.257812 -92.832031 51.617188 -92.832031 C 24.054688 -92.832031 4.289062 -72.160156 4.289062 -45.507812 C 4.289062 -18.984375 24.054688 1.820312 51.617188 1.820312 Z M 51.617188 1.820312 "/></g></g></g><g fill="#545454" fill-opacity="1"><g transform="translate(352.029721, 122.489636)"><g><path d="M 66.957031 0 L 86.460938 0 L 54.476562 -91.011719 L 32.246094 -91.011719 L 0.390625 0 L 19.761719 0 L 25.222656 -16.382812 L 61.5 -16.382812 Z M 30.945312 -33.15625 L 43.425781 -70.339844 L 55.90625 -33.15625 Z M 30.945312 -33.15625 "/></g></g></g><g fill="#545454" fill-opacity="1"><g transform="translate(438.874843, 122.489636)"><g><path d="M 61.109375 -91.011719 L 61.109375 -35.496094 L 22.101562 -91.011719 L 8.449219 -91.011719 L 8.449219 0 L 26.394531 0 L 26.394531 -55.648438 L 65.398438 0 L 79.050781 0 L 79.050781 -91.011719 Z M 61.109375 -91.011719 "/></g></g></g><g fill="#545454" fill-opacity="1"><g transform="translate(526.370024, 122.489636)"><g><path d="M 34.324219 1.820312 C 52.265625 1.820312 66.308594 -8.710938 66.308594 -28.34375 L 66.308594 -91.011719 L 48.496094 -91.011719 L 48.496094 -28.34375 C 48.496094 -20.933594 44.207031 -15.730469 34.324219 -15.730469 C 26.785156 -15.730469 22.621094 -18.59375 19.761719 -24.3125 L 4.289062 -15.472656 C 9.882812 -4.160156 20.414062 1.820312 34.324219 1.820312 Z M 34.324219 1.820312 "/></g></g></g><g fill="#545454" fill-opacity="1"><g transform="translate(600.344373, 122.489636)"><g><path d="M 26.394531 -17.164062 L 26.394531 -37.574219 L 60.847656 -37.574219 L 60.847656 -54.476562 L 26.394531 -54.476562 L 26.394531 -73.851562 L 64.097656 -73.851562 L 64.097656 -91.011719 L 8.449219 -91.011719 L 8.449219 0 L 64.75 0 L 64.75 -17.164062 Z M 26.394531 -17.164062 "/></g></g></g></g></g><g transform="matrix(1, 0, 0, 1, 305, 332)"><g clip-path="url(#4c183197de)"><g clip-path="url(#34c03bf01c)"><path fill="#38b6ff" d="M 43.28125 78.128906 C 44.542969 76.699219 45.539062 75.4375 46.671875 74.316406 C 50.457031 70.59375 54.117188 66.71875 58.171875 63.304688 C 62.542969 59.617188 68.828125 60.613281 72.855469 64.882812 C 73.863281 65.941406 75.636719 66.273438 77.230469 67.011719 C 77.917969 68.71875 76.285156 69.472656 75.277344 70.429688 C 66.140625 79.109375 59.039062 89.359375 52.882812 100.234375 C 50.523438 104.390625 48.941406 109.003906 47.15625 113.464844 C 45.753906 116.972656 45.578125 117.46875 41.753906 117.164062 C 34.933594 116.613281 28.992188 114.292969 24.695312 108.429688 C 17.210938 98.246094 9.144531 88.480469 3.535156 77.046875 C 2.628906 75.183594 1.953125 73.207031 0.703125 70.148438 C 6.300781 71.15625 10.902344 71.117188 13.859375 75.566406 C 15.671875 78.292969 17.519531 80.984375 20.015625 84.707031 C 20.65625 80.792969 21.050781 78.089844 21.535156 75.414062 C 25.191406 55.234375 33.3125 37.03125 48.546875 23.160156 C 62.402344 10.527344 78.683594 1.792969 98.199219 1.550781 C 114.59375 1.359375 128.667969 7.785156 140.96875 18.113281 C 145.890625 22.253906 150.058594 27.316406 154.429688 32.082031 C 155.566406 33.320312 156.191406 35.003906 157.042969 36.492188 C 156.710938 36.8125 156.382812 37.132812 156.050781 37.449219 C 154.035156 36.199219 151.945312 35.054688 150.046875 33.652344 C 148.859375 32.773438 147.941406 31.523438 146.949219 30.402344 C 134.199219 15.984375 118.097656 12.132812 99.855469 16.058594 C 85.921875 19.054688 74.414062 26.5625 64.738281 36.851562 C 54.511719 47.699219 47.578125 60.472656 43.421875 74.777344 C 43.230469 75.414062 43.078125 76.0625 42.976562 76.714844 C 42.949219 77.007812 43.101562 77.324219 43.28125 78.128906 Z M 43.28125 78.128906 " fill-opacity="1" fill-rule="nonzero"/></g><g clip-path="url(#b299c3eaa1)"><path fill="#545454" d="M 164.023438 94.613281 C 162.761719 96.042969 161.769531 97.304688 160.632812 98.425781 C 156.847656 102.148438 153.1875 106.023438 149.136719 109.441406 C 144.761719 113.125 138.476562 112.128906 134.449219 107.859375 C 133.441406 106.800781 131.671875 106.46875 130.078125 105.730469 C 129.390625 104.023438 131.019531 103.269531 132.027344 102.316406 C 141.167969 93.632812 148.269531 83.382812 154.425781 72.511719 C 156.785156 68.355469 158.363281 63.738281 160.148438 59.277344 C 161.550781 55.773438 161.730469 55.273438 165.554688 55.582031 C 172.375 56.128906 178.316406 58.449219 182.609375 64.3125 C 190.09375 74.5 198.164062 84.261719 203.773438 95.699219 C 204.679688 97.558594 205.355469 99.535156 206.601562 102.59375 C 201.007812 101.589844 196.40625 101.625 193.445312 97.175781 C 191.636719 94.449219 189.789062 91.757812 187.289062 88.035156 C 186.652344 91.949219 186.257812 94.652344 185.773438 97.332031 C 182.113281 117.511719 173.992188 135.714844 158.761719 149.582031 C 144.902344 162.21875 128.625 170.949219 109.105469 171.191406 C 92.714844 171.382812 78.640625 164.957031 66.339844 154.632812 C 61.417969 150.488281 57.25 145.429688 52.875 140.660156 C 51.742188 139.421875 51.117188 137.742188 50.261719 136.25 C 50.59375 135.929688 50.925781 135.613281 51.257812 135.292969 C 53.269531 136.542969 55.363281 137.691406 57.261719 139.09375 C 58.445312 139.972656 59.363281 141.222656 60.359375 142.34375 C 73.105469 156.761719 89.207031 160.609375 107.449219 156.683594 C 121.382812 153.6875 132.894531 146.179688 142.570312 135.890625 C 152.792969 125.042969 159.730469 112.269531 163.882812 97.96875 C 164.074219 97.332031 164.230469 96.679688 164.332031 96.03125 C 164.355469 95.738281 164.203125 95.417969 164.023438 94.613281 Z M 164.023438 94.613281 " fill-opacity="1" fill-rule="nonzero"/></g><g clip-path="url(#98dac59561)"><path fill="#545454" d="M 103.03125 76.65625 L 90.46875 76.65625 C 90.121094 76.65625 89.839844 76.9375 89.839844 77.28125 L 89.839844 89.847656 C 89.839844 90.191406 90.121094 90.472656 90.46875 90.472656 L 103.03125 90.472656 C 103.378906 90.472656 103.660156 90.191406 103.660156 89.847656 L 103.660156 77.28125 C 103.660156 76.9375 103.378906 76.65625 103.03125 76.65625 Z M 103.03125 76.65625 " fill-opacity="1" fill-rule="nonzero"/></g><g clip-path="url(#1725370f12)"><path fill="#545454" d="M 120.621094 76.65625 L 108.054688 76.65625 C 107.707031 76.65625 107.429688 76.9375 107.429688 77.28125 L 107.429688 89.847656 C 107.429688 90.191406 107.707031 90.472656 108.054688 90.472656 L 120.621094 90.472656 C 120.964844 90.472656 121.246094 90.191406 121.246094 89.847656 L 121.246094 77.28125 C 121.246094 76.9375 120.964844 76.65625 120.621094 76.65625 Z M 120.621094 76.65625 " fill-opacity="1" fill-rule="nonzero"/></g><g clip-path="url(#b440ccdef9)"><path fill="#545454" d="M 103.03125 94.242188 L 90.46875 94.242188 C 90.121094 94.242188 89.839844 94.523438 89.839844 94.871094 L 89.839844 107.433594 C 89.839844 107.78125 90.121094 108.0625 90.46875 108.0625 L 103.03125 108.0625 C 103.378906 108.0625 103.660156 107.78125 103.660156 107.433594 L 103.660156 94.871094 C 103.660156 94.523438 103.378906 94.242188 103.03125 94.242188 Z M 103.03125 94.242188 " fill-opacity="1" fill-rule="nonzero"/></g><g clip-path="url(#06119ba046)"><path fill="#545454" d="M 120.621094 94.242188 L 108.054688 94.242188 C 107.707031 94.242188 107.429688 94.523438 107.429688 94.871094 L 107.429688 107.433594 C 107.429688 107.78125 107.707031 108.0625 108.054688 108.0625 L 120.621094 108.0625 C 120.964844 108.0625 121.246094 107.78125 121.246094 107.433594 L 121.246094 94.871094 C 121.246094 94.523438 120.964844 94.242188 120.621094 94.242188 Z M 120.621094 94.242188 " fill-opacity="1" fill-rule="nonzero"/></g></g></g></svg>